<svg width="24" height="23" viewBox="0 0 24 23" fill="none" xmlns="http://www.w3.org/2000/svg">
<path d="M23.1872 17.9759C23.1337 17.6456 22.9267 17.3634 22.6166 17.1957L18.0294 14.493L17.9917 14.4719C17.7993 14.3756 17.5869 14.3262 17.3718 14.3279C16.9875 14.3279 16.6205 14.4735 16.3657 14.7288L15.0118 16.0834C14.9539 16.1384 14.7651 16.2181 14.7078 16.221C14.6921 16.2197 13.1325 16.1074 10.2611 13.2357C7.39486 10.3701 7.27326 8.80562 7.2723 8.80562C7.2739 8.72562 7.35262 8.53746 7.40862 8.47922L8.56318 7.32498C8.9699 6.9173 9.09182 6.24146 8.85054 5.71794L6.30078 0.920182C6.1155 0.538742 5.7555 0.303223 5.35614 0.303223C5.07358 0.303223 4.80094 0.420343 4.58782 0.633143L1.44062 3.7733C1.13886 4.07346 0.87902 4.59826 0.82238 5.02066C0.79486 5.22258 0.23646 10.0424 6.84446 16.6514C12.4544 22.2607 16.8288 22.6965 18.0368 22.6965C18.1839 22.6984 18.331 22.6908 18.4771 22.6738C18.8982 22.6175 19.4224 22.3583 19.7222 22.0578L22.8669 18.9135C23.1235 18.6555 23.2406 18.3147 23.1872 17.9759Z" fill="#F5F5F5"/>
</svg>
